<svg xmlns="http://www.w3.org/2000/svg" viewBox="0 0 64 64">
  <rect x="24" y="14" width="4" height="4" fill="#60a5fa"/>
  <rect x="28" y="14" width="4" height="4" fill="#60a5fa"/>
  <rect x="24" y="18" width="4" height="4" fill="#3b82f6"/>
  <rect x="28" y="18" width="4" height="4" fill="#3b82f6"/>
  <rect x="28" y="18" width="4" height="4" fill="#60a5fa"/>
  <rect x="32" y="18" width="4" height="4" fill="#60a5fa"/>
  <rect x="28" y="22" width="4" height="4" fill="#3b82f6"/>
  <rect x="32" y="22" width="4" height="4" fill="#3b82f6"/>
  <rect x="32" y="22" width="4" height="4" fill="#60a5fa"/>
  <rect x="36" y="22" width="4" height="4" fill="#60a5fa"/>
  <rect x="32" y="26" width="4" height="4" fill="#3b82f6"/>
  <rect x="36" y="26" width="4" height="4" fill="#3b82f6"/>
  <rect x="36" y="26" width="4" height="4" fill="#60a5fa"/>
  <rect x="40" y="26" width="4" height="4" fill="#60a5fa"/>
  <rect x="36" y="30" width="4" height="4" fill="#3b82f6"/>
  <rect x="40" y="30" width="4" height="4" fill="#3b82f6"/>
  <rect x="40" y="30" width="4" height="4" fill="#60a5fa"/>
  <rect x="44" y="30" width="4" height="4" fill="#60a5fa"/>
  <rect x="40" y="34" width="4" height="4" fill="#3b82f6"/>
  <rect x="44" y="34" width="4" height="4" fill="#3b82f6"/>
  <rect x="44" y="34" width="4" height="4" fill="#60a5fa"/>
  <rect x="48" y="34" width="4" height="4" fill="#60a5fa"/>
  <rect x="44" y="38" width="4" height="4" fill="#3b82f6"/>
  <rect x="48" y="38" width="4" height="4" fill="#3b82f6"/>
  <rect x="32" y="30" width="4" height="4" fill="#94a3b8"/>
  <rect x="28" y="34" width="4" height="4" fill="#94a3b8"/>
  <rect x="24" y="38" width="4" height="4" fill="#94a3b8"/>
  <rect x="20" y="42" width="4" height="4" fill="#64748b"/>
  <rect x="16" y="46" width="4" height="4" fill="#64748b"/>
  <rect x="12" y="50" width="4" height="4" fill="#475569"/>
</svg>
