<svg viewBox="0 0 64 64" xmlns="http://www.w3.org/2000/svg">
  <!-- Disk with center hole - neutral colors for dark/light mode -->

  <!-- Outer disk edge -->
  <rect x="24" y="8" width="4" height="4" fill="#475569"/>
  <rect x="28" y="8" width="4" height="4" fill="#475569"/>
  <rect x="32" y="8" width="4" height="4" fill="#475569"/>
  <rect x="36" y="8" width="4" height="4" fill="#475569"/>

  <rect x="20" y="12" width="4" height="4" fill="#475569"/>
  <rect x="40" y="12" width="4" height="4" fill="#475569"/>

  <rect x="16" y="16" width="4" height="4" fill="#475569"/>
  <rect x="44" y="16" width="4" height="4" fill="#475569"/>

  <rect x="12" y="20" width="4" height="4" fill="#475569"/>
  <rect x="48" y="20" width="4" height="4" fill="#475569"/>

  <rect x="8" y="24" width="4" height="4" fill="#475569"/>
  <rect x="52" y="24" width="4" height="4" fill="#475569"/>

  <rect x="8" y="28" width="4" height="4" fill="#475569"/>
  <rect x="52" y="28" width="4" height="4" fill="#475569"/>

  <rect x="8" y="32" width="4" height="4" fill="#475569"/>
  <rect x="52" y="32" width="4" height="4" fill="#475569"/>

  <rect x="8" y="36" width="4" height="4" fill="#475569"/>
  <rect x="52" y="36" width="4" height="4" fill="#475569"/>

  <rect x="12" y="40" width="4" height="4" fill="#475569"/>
  <rect x="48" y="40" width="4" height="4" fill="#475569"/>

  <rect x="16" y="44" width="4" height="4" fill="#475569"/>
  <rect x="44" y="44" width="4" height="4" fill="#475569"/>

  <rect x="20" y="48" width="4" height="4" fill="#475569"/>
  <rect x="40" y="48" width="4" height="4" fill="#475569"/>

  <rect x="24" y="52" width="4" height="4" fill="#475569"/>
  <rect x="28" y="52" width="4" height="4" fill="#475569"/>
  <rect x="32" y="52" width="4" height="4" fill="#475569"/>
  <rect x="36" y="52" width="4" height="4" fill="#475569"/>

  <!-- Mid disk surface -->
  <rect x="24" y="12" width="4" height="4" fill="#64748b"/>
  <rect x="28" y="12" width="4" height="4" fill="#64748b"/>
  <rect x="32" y="12" width="4" height="4" fill="#64748b"/>
  <rect x="36" y="12" width="4" height="4" fill="#64748b"/>

  <rect x="20" y="16" width="4" height="4" fill="#64748b"/>
  <rect x="40" y="16" width="4" height="4" fill="#64748b"/>

  <rect x="16" y="20" width="4" height="4" fill="#64748b"/>
  <rect x="44" y="20" width="4" height="4" fill="#64748b"/>

  <rect x="12" y="24" width="4" height="4" fill="#64748b"/>
  <rect x="48" y="24" width="4" height="4" fill="#64748b"/>

  <rect x="12" y="28" width="4" height="4" fill="#64748b"/>
  <rect x="48" y="28" width="4" height="4" fill="#64748b"/>

  <rect x="12" y="32" width="4" height="4" fill="#64748b"/>
  <rect x="48" y="32" width="4" height="4" fill="#64748b"/>

  <rect x="12" y="36" width="4" height="4" fill="#64748b"/>
  <rect x="48" y="36" width="4" height="4" fill="#64748b"/>

  <rect x="16" y="40" width="4" height="4" fill="#64748b"/>
  <rect x="44" y="40" width="4" height="4" fill="#64748b"/>

  <rect x="20" y="44" width="4" height="4" fill="#64748b"/>
  <rect x="40" y="44" width="4" height="4" fill="#64748b"/>

  <rect x="24" y="48" width="4" height="4" fill="#64748b"/>
  <rect x="28" y="48" width="4" height="4" fill="#64748b"/>
  <rect x="32" y="48" width="4" height="4" fill="#64748b"/>
  <rect x="36" y="48" width="4" height="4" fill="#64748b"/>

  <!-- Highlight gradient (top/right lighter) -->
  <rect x="28" y="16" width="4" height="4" fill="#94a3b8"/>
  <rect x="32" y="16" width="4" height="4" fill="#94a3b8"/>
  <rect x="36" y="16" width="4" height="4" fill="#94a3b8"/>
  <rect x="40" y="20" width="4" height="4" fill="#94a3b8"/>
  <rect x="44" y="24" width="4" height="4" fill="#94a3b8"/>
  <rect x="44" y="28" width="4" height="4" fill="#94a3b8"/>
  <rect x="44" y="32" width="4" height="4" fill="#94a3b8"/>

  <!-- Orange accent -->
  <rect x="16" y="32" width="4" height="4" fill="#f97316"/>
  <rect x="16" y="28" width="4" height="4" fill="#f97316"/>
  <rect x="20" y="36" width="4" height="4" fill="#fb923c"/>

  <!-- Center hole -->
  <rect x="28" y="28" width="4" height="4" fill="#1e293b"/>
  <rect x="32" y="28" width="4" height="4" fill="#1e293b"/>
  <rect x="28" y="32" width="4" height="4" fill="#1e293b"/>
  <rect x="32" y="32" width="4" height="4" fill="#1e293b"/>
</svg>
